<mxfile host="app.diagrams.net" modified="2023-05-28T14:30:47.670Z" agent="Mozilla/5.0 (Windows NT 10.0; Win64; x64) AppleWebKit/537.36 (KHTML, like Gecko) Chrome/110.0.0.0 YaBrowser/23.3.3.719 Yowser/2.5 Safari/537.36" etag="yDbgtpLd8DwvX4LI4UiK" version="21.3.3" type="device" pages="3">
  <diagram id="w9VV9k05O4SM8uvDd46w" name="Страница 2">
    <mxGraphModel dx="1434" dy="783" grid="1" gridSize="10" guides="1" tooltips="1" connect="1" arrows="1" fold="1" page="1" pageScale="1" pageWidth="827" pageHeight="1169" math="0" shadow="0">
      <root>
        <mxCell id="0" />
        <mxCell id="1" parent="0" />
        <mxCell id="xIEZkkpjUl3CvWUzZ9zc-8" value="MainActivity" style="shape=umlLifeline;perimeter=lifelinePerimeter;whiteSpace=wrap;html=1;container=1;dropTarget=0;collapsible=0;recursiveResize=0;outlineConnect=0;portConstraint=eastwest;newEdgeStyle={&quot;edgeStyle&quot;:&quot;elbowEdgeStyle&quot;,&quot;elbow&quot;:&quot;vertical&quot;,&quot;curved&quot;:0,&quot;rounded&quot;:0};" vertex="1" parent="1">
          <mxGeometry x="205" width="100" height="360" as="geometry" />
        </mxCell>
        <mxCell id="xIEZkkpjUl3CvWUzZ9zc-13" value="" style="html=1;points=[];perimeter=orthogonalPerimeter;outlineConnect=0;targetShapes=umlLifeline;portConstraint=eastwest;newEdgeStyle={&quot;edgeStyle&quot;:&quot;elbowEdgeStyle&quot;,&quot;elbow&quot;:&quot;vertical&quot;,&quot;curved&quot;:0,&quot;rounded&quot;:0};" vertex="1" parent="xIEZkkpjUl3CvWUzZ9zc-8">
          <mxGeometry x="45" y="100" width="10" height="110" as="geometry" />
        </mxCell>
        <mxCell id="xIEZkkpjUl3CvWUzZ9zc-18" value="" style="html=1;points=[];perimeter=orthogonalPerimeter;outlineConnect=0;targetShapes=umlLifeline;portConstraint=eastwest;newEdgeStyle={&quot;edgeStyle&quot;:&quot;elbowEdgeStyle&quot;,&quot;elbow&quot;:&quot;vertical&quot;,&quot;curved&quot;:0,&quot;rounded&quot;:0};" vertex="1" parent="xIEZkkpjUl3CvWUzZ9zc-8">
          <mxGeometry x="50" y="123" width="10" height="40" as="geometry" />
        </mxCell>
        <mxCell id="xIEZkkpjUl3CvWUzZ9zc-19" value="replaceFragment()" style="html=1;align=left;spacingLeft=2;endArrow=block;rounded=0;edgeStyle=orthogonalEdgeStyle;curved=0;rounded=0;" edge="1" parent="xIEZkkpjUl3CvWUzZ9zc-8">
          <mxGeometry relative="1" as="geometry">
            <mxPoint x="55" y="112" as="sourcePoint" />
            <Array as="points">
              <mxPoint x="85" y="142" />
            </Array>
            <mxPoint x="60" y="142" as="targetPoint" />
          </mxGeometry>
        </mxCell>
        <mxCell id="xIEZkkpjUl3CvWUzZ9zc-9" value="" style="shape=umlLifeline;perimeter=lifelinePerimeter;whiteSpace=wrap;html=1;container=1;dropTarget=0;collapsible=0;recursiveResize=0;outlineConnect=0;portConstraint=eastwest;newEdgeStyle={&quot;edgeStyle&quot;:&quot;elbowEdgeStyle&quot;,&quot;elbow&quot;:&quot;vertical&quot;,&quot;curved&quot;:0,&quot;rounded&quot;:0};participant=umlActor;" vertex="1" parent="1">
          <mxGeometry x="82" width="20" height="360" as="geometry" />
        </mxCell>
        <mxCell id="xIEZkkpjUl3CvWUzZ9zc-10" value="" style="html=1;points=[];perimeter=orthogonalPerimeter;outlineConnect=0;targetShapes=umlLifeline;portConstraint=eastwest;newEdgeStyle={&quot;edgeStyle&quot;:&quot;elbowEdgeStyle&quot;,&quot;elbow&quot;:&quot;vertical&quot;,&quot;curved&quot;:0,&quot;rounded&quot;:0};" vertex="1" parent="xIEZkkpjUl3CvWUzZ9zc-9">
          <mxGeometry x="5" y="86" width="10" height="80" as="geometry" />
        </mxCell>
        <mxCell id="xIEZkkpjUl3CvWUzZ9zc-11" value="Студент /&lt;br&gt;Ответственный за мероприятие" style="text;html=1;strokeColor=none;fillColor=none;align=center;verticalAlign=middle;whiteSpace=wrap;rounded=0;" vertex="1" parent="1">
          <mxGeometry x="2" y="50" width="180" height="20" as="geometry" />
        </mxCell>
        <mxCell id="xIEZkkpjUl3CvWUzZ9zc-12" value="Переход во&lt;br&gt;вкладку&lt;br&gt;&quot;Мои мероприятия&quot;" style="html=1;verticalAlign=bottom;endArrow=block;edgeStyle=elbowEdgeStyle;elbow=vertical;curved=0;rounded=0;" edge="1" parent="1" source="xIEZkkpjUl3CvWUzZ9zc-10" target="xIEZkkpjUl3CvWUzZ9zc-13">
          <mxGeometry x="0.085" y="-50" width="80" relative="1" as="geometry">
            <mxPoint x="100" y="120" as="sourcePoint" />
            <mxPoint x="190" y="120" as="targetPoint" />
            <Array as="points">
              <mxPoint x="100" y="120" />
            </Array>
            <mxPoint as="offset" />
          </mxGeometry>
        </mxCell>
        <mxCell id="xIEZkkpjUl3CvWUzZ9zc-14" value="EventsFragment" style="shape=umlLifeline;perimeter=lifelinePerimeter;whiteSpace=wrap;html=1;container=1;dropTarget=0;collapsible=0;recursiveResize=0;outlineConnect=0;portConstraint=eastwest;newEdgeStyle={&quot;edgeStyle&quot;:&quot;elbowEdgeStyle&quot;,&quot;elbow&quot;:&quot;vertical&quot;,&quot;curved&quot;:0,&quot;rounded&quot;:0};" vertex="1" parent="1">
          <mxGeometry x="360" width="110" height="360" as="geometry" />
        </mxCell>
        <mxCell id="xIEZkkpjUl3CvWUzZ9zc-15" value="" style="html=1;points=[];perimeter=orthogonalPerimeter;outlineConnect=0;targetShapes=umlLifeline;portConstraint=eastwest;newEdgeStyle={&quot;edgeStyle&quot;:&quot;elbowEdgeStyle&quot;,&quot;elbow&quot;:&quot;vertical&quot;,&quot;curved&quot;:0,&quot;rounded&quot;:0};" vertex="1" parent="xIEZkkpjUl3CvWUzZ9zc-14">
          <mxGeometry x="50" y="160" width="10" height="50" as="geometry" />
        </mxCell>
        <mxCell id="xIEZkkpjUl3CvWUzZ9zc-27" value="" style="html=1;points=[];perimeter=orthogonalPerimeter;outlineConnect=0;targetShapes=umlLifeline;portConstraint=eastwest;newEdgeStyle={&quot;edgeStyle&quot;:&quot;elbowEdgeStyle&quot;,&quot;elbow&quot;:&quot;vertical&quot;,&quot;curved&quot;:0,&quot;rounded&quot;:0};" vertex="1" parent="xIEZkkpjUl3CvWUzZ9zc-14">
          <mxGeometry x="50" y="260" width="10" height="90" as="geometry" />
        </mxCell>
        <mxCell id="xIEZkkpjUl3CvWUzZ9zc-28" value="" style="html=1;points=[];perimeter=orthogonalPerimeter;outlineConnect=0;targetShapes=umlLifeline;portConstraint=eastwest;newEdgeStyle={&quot;edgeStyle&quot;:&quot;elbowEdgeStyle&quot;,&quot;elbow&quot;:&quot;vertical&quot;,&quot;curved&quot;:0,&quot;rounded&quot;:0};" vertex="1" parent="xIEZkkpjUl3CvWUzZ9zc-14">
          <mxGeometry x="55" y="300" width="10" height="40" as="geometry" />
        </mxCell>
        <mxCell id="xIEZkkpjUl3CvWUzZ9zc-29" value="setAdapter()" style="html=1;align=left;spacingLeft=2;endArrow=block;rounded=0;edgeStyle=orthogonalEdgeStyle;curved=0;rounded=0;" edge="1" target="xIEZkkpjUl3CvWUzZ9zc-28" parent="xIEZkkpjUl3CvWUzZ9zc-14">
          <mxGeometry relative="1" as="geometry">
            <mxPoint x="60" y="280" as="sourcePoint" />
            <Array as="points">
              <mxPoint x="90" y="310" />
            </Array>
          </mxGeometry>
        </mxCell>
        <mxCell id="xIEZkkpjUl3CvWUzZ9zc-17" value="startActivity()" style="html=1;verticalAlign=bottom;endArrow=block;edgeStyle=elbowEdgeStyle;elbow=vertical;curved=0;rounded=0;" edge="1" parent="1" source="xIEZkkpjUl3CvWUzZ9zc-13" target="xIEZkkpjUl3CvWUzZ9zc-15">
          <mxGeometry x="-0.0345" width="80" relative="1" as="geometry">
            <mxPoint x="260" y="130" as="sourcePoint" />
            <mxPoint x="400" y="130" as="targetPoint" />
            <Array as="points">
              <mxPoint x="360" y="180" />
              <mxPoint x="350" y="200" />
            </Array>
            <mxPoint as="offset" />
          </mxGeometry>
        </mxCell>
        <mxCell id="xIEZkkpjUl3CvWUzZ9zc-20" value="ServerHelper" style="shape=umlLifeline;perimeter=lifelinePerimeter;whiteSpace=wrap;html=1;container=1;dropTarget=0;collapsible=0;recursiveResize=0;outlineConnect=0;portConstraint=eastwest;newEdgeStyle={&quot;edgeStyle&quot;:&quot;elbowEdgeStyle&quot;,&quot;elbow&quot;:&quot;vertical&quot;,&quot;curved&quot;:0,&quot;rounded&quot;:0};" vertex="1" parent="1">
          <mxGeometry x="500" width="110" height="360" as="geometry" />
        </mxCell>
        <mxCell id="xIEZkkpjUl3CvWUzZ9zc-21" value="" style="html=1;points=[];perimeter=orthogonalPerimeter;outlineConnect=0;targetShapes=umlLifeline;portConstraint=eastwest;newEdgeStyle={&quot;edgeStyle&quot;:&quot;elbowEdgeStyle&quot;,&quot;elbow&quot;:&quot;vertical&quot;,&quot;curved&quot;:0,&quot;rounded&quot;:0};" vertex="1" parent="xIEZkkpjUl3CvWUzZ9zc-20">
          <mxGeometry x="50" y="188" width="10" height="82" as="geometry" />
        </mxCell>
        <mxCell id="xIEZkkpjUl3CvWUzZ9zc-22" value="getEvent()" style="html=1;verticalAlign=bottom;endArrow=block;edgeStyle=elbowEdgeStyle;elbow=vertical;curved=0;rounded=0;" edge="1" parent="1">
          <mxGeometry width="80" relative="1" as="geometry">
            <mxPoint x="420" y="200" as="sourcePoint" />
            <mxPoint x="550" y="200" as="targetPoint" />
            <mxPoint as="offset" />
          </mxGeometry>
        </mxCell>
        <mxCell id="xIEZkkpjUl3CvWUzZ9zc-23" value="Event" style="shape=umlLifeline;perimeter=lifelinePerimeter;whiteSpace=wrap;html=1;container=1;dropTarget=0;collapsible=0;recursiveResize=0;outlineConnect=0;portConstraint=eastwest;newEdgeStyle={&quot;edgeStyle&quot;:&quot;elbowEdgeStyle&quot;,&quot;elbow&quot;:&quot;vertical&quot;,&quot;curved&quot;:0,&quot;rounded&quot;:0};" vertex="1" parent="1">
          <mxGeometry x="640" width="110" height="360" as="geometry" />
        </mxCell>
        <mxCell id="xIEZkkpjUl3CvWUzZ9zc-24" value="" style="html=1;points=[];perimeter=orthogonalPerimeter;outlineConnect=0;targetShapes=umlLifeline;portConstraint=eastwest;newEdgeStyle={&quot;edgeStyle&quot;:&quot;elbowEdgeStyle&quot;,&quot;elbow&quot;:&quot;vertical&quot;,&quot;curved&quot;:0,&quot;rounded&quot;:0};" vertex="1" parent="xIEZkkpjUl3CvWUzZ9zc-23">
          <mxGeometry x="50" y="209" width="10" height="61" as="geometry" />
        </mxCell>
        <mxCell id="xIEZkkpjUl3CvWUzZ9zc-25" value="Event()" style="html=1;verticalAlign=bottom;endArrow=block;edgeStyle=elbowEdgeStyle;elbow=vertical;curved=0;rounded=0;" edge="1" parent="1">
          <mxGeometry width="80" relative="1" as="geometry">
            <mxPoint x="560" y="220" as="sourcePoint" />
            <mxPoint x="690" y="220" as="targetPoint" />
          </mxGeometry>
        </mxCell>
        <mxCell id="xIEZkkpjUl3CvWUzZ9zc-26" value="Event" style="html=1;verticalAlign=bottom;endArrow=open;dashed=1;endSize=8;edgeStyle=elbowEdgeStyle;elbow=vertical;curved=0;rounded=0;" edge="1" parent="1">
          <mxGeometry relative="1" as="geometry">
            <mxPoint x="690" y="260" as="sourcePoint" />
            <mxPoint x="560" y="260" as="targetPoint" />
          </mxGeometry>
        </mxCell>
        <mxCell id="xIEZkkpjUl3CvWUzZ9zc-30" value="ArrayList&amp;lt;Event&amp;gt;" style="html=1;verticalAlign=bottom;endArrow=open;dashed=1;endSize=8;edgeStyle=elbowEdgeStyle;elbow=vertical;curved=0;rounded=0;" edge="1" parent="1" target="xIEZkkpjUl3CvWUzZ9zc-27">
          <mxGeometry relative="1" as="geometry">
            <mxPoint x="550" y="270" as="sourcePoint" />
            <mxPoint x="470" y="270" as="targetPoint" />
          </mxGeometry>
        </mxCell>
        <mxCell id="xIEZkkpjUl3CvWUzZ9zc-31" value="Отображение мероприятий" style="html=1;verticalAlign=bottom;endArrow=open;dashed=1;endSize=8;edgeStyle=elbowEdgeStyle;elbow=vertical;curved=0;rounded=0;" edge="1" parent="1" target="FKl47vXZ6xmg-5Cv92Uh-1">
          <mxGeometry relative="1" as="geometry">
            <mxPoint x="410" y="340" as="sourcePoint" />
            <mxPoint x="330" y="340" as="targetPoint" />
          </mxGeometry>
        </mxCell>
        <mxCell id="FKl47vXZ6xmg-5Cv92Uh-1" value="" style="html=1;points=[];perimeter=orthogonalPerimeter;outlineConnect=0;targetShapes=umlLifeline;portConstraint=eastwest;newEdgeStyle={&quot;edgeStyle&quot;:&quot;elbowEdgeStyle&quot;,&quot;elbow&quot;:&quot;vertical&quot;,&quot;curved&quot;:0,&quot;rounded&quot;:0};" vertex="1" parent="1">
          <mxGeometry x="87" y="330" width="10" height="20" as="geometry" />
        </mxCell>
      </root>
    </mxGraphModel>
  </diagram>
  <diagram id="AFsiovVuGtCbUPmL0gBQ" name="Страница 3">
    <mxGraphModel dx="1195" dy="653" grid="1" gridSize="10" guides="1" tooltips="1" connect="1" arrows="1" fold="1" page="1" pageScale="1" pageWidth="827" pageHeight="1169" math="0" shadow="0">
      <root>
        <mxCell id="0" />
        <mxCell id="1" parent="0" />
        <mxCell id="iKVXUZ8S4XAQ7XiQrZDc-2" value="Выбор мероприятия" style="html=1;verticalAlign=bottom;endArrow=block;edgeStyle=elbowEdgeStyle;elbow=vertical;curved=0;rounded=0;" edge="1" parent="1" target="QW6PN2CW0WBKj5Q1I79f-2">
          <mxGeometry width="80" relative="1" as="geometry">
            <mxPoint x="100" y="120" as="sourcePoint" />
            <mxPoint x="182" y="120" as="targetPoint" />
            <Array as="points">
              <mxPoint x="90" y="120" />
            </Array>
          </mxGeometry>
        </mxCell>
        <mxCell id="QW6PN2CW0WBKj5Q1I79f-1" value="EventsFragment" style="shape=umlLifeline;perimeter=lifelinePerimeter;whiteSpace=wrap;html=1;container=1;dropTarget=0;collapsible=0;recursiveResize=0;outlineConnect=0;portConstraint=eastwest;newEdgeStyle={&quot;edgeStyle&quot;:&quot;elbowEdgeStyle&quot;,&quot;elbow&quot;:&quot;vertical&quot;,&quot;curved&quot;:0,&quot;rounded&quot;:0};" vertex="1" parent="1">
          <mxGeometry x="205" width="100" height="440" as="geometry" />
        </mxCell>
        <mxCell id="QW6PN2CW0WBKj5Q1I79f-2" value="" style="html=1;points=[];perimeter=orthogonalPerimeter;outlineConnect=0;targetShapes=umlLifeline;portConstraint=eastwest;newEdgeStyle={&quot;edgeStyle&quot;:&quot;elbowEdgeStyle&quot;,&quot;elbow&quot;:&quot;vertical&quot;,&quot;curved&quot;:0,&quot;rounded&quot;:0};" vertex="1" parent="QW6PN2CW0WBKj5Q1I79f-1">
          <mxGeometry x="45" y="100" width="10" height="50" as="geometry" />
        </mxCell>
        <mxCell id="QW6PN2CW0WBKj5Q1I79f-5" value="" style="shape=umlLifeline;perimeter=lifelinePerimeter;whiteSpace=wrap;html=1;container=1;dropTarget=0;collapsible=0;recursiveResize=0;outlineConnect=0;portConstraint=eastwest;newEdgeStyle={&quot;edgeStyle&quot;:&quot;elbowEdgeStyle&quot;,&quot;elbow&quot;:&quot;vertical&quot;,&quot;curved&quot;:0,&quot;rounded&quot;:0};participant=umlActor;" vertex="1" parent="1">
          <mxGeometry x="82" width="20" height="440" as="geometry" />
        </mxCell>
        <mxCell id="QW6PN2CW0WBKj5Q1I79f-6" value="" style="html=1;points=[];perimeter=orthogonalPerimeter;outlineConnect=0;targetShapes=umlLifeline;portConstraint=eastwest;newEdgeStyle={&quot;edgeStyle&quot;:&quot;elbowEdgeStyle&quot;,&quot;elbow&quot;:&quot;vertical&quot;,&quot;curved&quot;:0,&quot;rounded&quot;:0};" vertex="1" parent="QW6PN2CW0WBKj5Q1I79f-5">
          <mxGeometry x="5" y="86" width="10" height="80" as="geometry" />
        </mxCell>
        <mxCell id="QW6PN2CW0WBKj5Q1I79f-7" value="Студент" style="text;html=1;strokeColor=none;fillColor=none;align=center;verticalAlign=middle;whiteSpace=wrap;rounded=0;" vertex="1" parent="1">
          <mxGeometry x="2" y="50" width="180" height="20" as="geometry" />
        </mxCell>
        <mxCell id="QW6PN2CW0WBKj5Q1I79f-8" value="EventActivity" style="shape=umlLifeline;perimeter=lifelinePerimeter;whiteSpace=wrap;html=1;container=1;dropTarget=0;collapsible=0;recursiveResize=0;outlineConnect=0;portConstraint=eastwest;newEdgeStyle={&quot;edgeStyle&quot;:&quot;elbowEdgeStyle&quot;,&quot;elbow&quot;:&quot;vertical&quot;,&quot;curved&quot;:0,&quot;rounded&quot;:0};" vertex="1" parent="1">
          <mxGeometry x="360" width="110" height="440" as="geometry" />
        </mxCell>
        <mxCell id="QW6PN2CW0WBKj5Q1I79f-9" value="" style="html=1;points=[];perimeter=orthogonalPerimeter;outlineConnect=0;targetShapes=umlLifeline;portConstraint=eastwest;newEdgeStyle={&quot;edgeStyle&quot;:&quot;elbowEdgeStyle&quot;,&quot;elbow&quot;:&quot;vertical&quot;,&quot;curved&quot;:0,&quot;rounded&quot;:0};" vertex="1" parent="QW6PN2CW0WBKj5Q1I79f-8">
          <mxGeometry x="50" y="120" width="10" height="50" as="geometry" />
        </mxCell>
        <mxCell id="5vUXlVllRLdKYAuAef-E-2" value="" style="html=1;points=[];perimeter=orthogonalPerimeter;outlineConnect=0;targetShapes=umlLifeline;portConstraint=eastwest;newEdgeStyle={&quot;edgeStyle&quot;:&quot;elbowEdgeStyle&quot;,&quot;elbow&quot;:&quot;vertical&quot;,&quot;curved&quot;:0,&quot;rounded&quot;:0};" vertex="1" parent="QW6PN2CW0WBKj5Q1I79f-8">
          <mxGeometry x="50" y="330" width="10" height="70" as="geometry" />
        </mxCell>
        <mxCell id="QW6PN2CW0WBKj5Q1I79f-13" value="ServerHelper" style="shape=umlLifeline;perimeter=lifelinePerimeter;whiteSpace=wrap;html=1;container=1;dropTarget=0;collapsible=0;recursiveResize=0;outlineConnect=0;portConstraint=eastwest;newEdgeStyle={&quot;edgeStyle&quot;:&quot;elbowEdgeStyle&quot;,&quot;elbow&quot;:&quot;vertical&quot;,&quot;curved&quot;:0,&quot;rounded&quot;:0};" vertex="1" parent="1">
          <mxGeometry x="500" width="110" height="440" as="geometry" />
        </mxCell>
        <mxCell id="QW6PN2CW0WBKj5Q1I79f-14" value="" style="html=1;points=[];perimeter=orthogonalPerimeter;outlineConnect=0;targetShapes=umlLifeline;portConstraint=eastwest;newEdgeStyle={&quot;edgeStyle&quot;:&quot;elbowEdgeStyle&quot;,&quot;elbow&quot;:&quot;vertical&quot;,&quot;curved&quot;:0,&quot;rounded&quot;:0};" vertex="1" parent="QW6PN2CW0WBKj5Q1I79f-13">
          <mxGeometry x="50" y="143" width="10" height="37" as="geometry" />
        </mxCell>
        <mxCell id="fNEhSS18g99auR-ih_F9-2" value="" style="html=1;points=[];perimeter=orthogonalPerimeter;outlineConnect=0;targetShapes=umlLifeline;portConstraint=eastwest;newEdgeStyle={&quot;edgeStyle&quot;:&quot;elbowEdgeStyle&quot;,&quot;elbow&quot;:&quot;vertical&quot;,&quot;curved&quot;:0,&quot;rounded&quot;:0};" vertex="1" parent="QW6PN2CW0WBKj5Q1I79f-13">
          <mxGeometry x="50" y="200" width="10" height="37" as="geometry" />
        </mxCell>
        <mxCell id="QW6PN2CW0WBKj5Q1I79f-15" value="MyEvent" style="shape=umlLifeline;perimeter=lifelinePerimeter;whiteSpace=wrap;html=1;container=1;dropTarget=0;collapsible=0;recursiveResize=0;outlineConnect=0;portConstraint=eastwest;newEdgeStyle={&quot;edgeStyle&quot;:&quot;elbowEdgeStyle&quot;,&quot;elbow&quot;:&quot;vertical&quot;,&quot;curved&quot;:0,&quot;rounded&quot;:0};" vertex="1" parent="1">
          <mxGeometry x="640" width="110" height="440" as="geometry" />
        </mxCell>
        <mxCell id="QW6PN2CW0WBKj5Q1I79f-16" value="" style="html=1;points=[];perimeter=orthogonalPerimeter;outlineConnect=0;targetShapes=umlLifeline;portConstraint=eastwest;newEdgeStyle={&quot;edgeStyle&quot;:&quot;elbowEdgeStyle&quot;,&quot;elbow&quot;:&quot;vertical&quot;,&quot;curved&quot;:0,&quot;rounded&quot;:0};" vertex="1" parent="QW6PN2CW0WBKj5Q1I79f-15">
          <mxGeometry x="50" y="162" width="10" height="61" as="geometry" />
        </mxCell>
        <mxCell id="NcYGzKrfO2AgDN8FQ53x-1" value="startActivity()" style="html=1;verticalAlign=bottom;endArrow=block;edgeStyle=elbowEdgeStyle;elbow=vertical;curved=0;rounded=0;" edge="1" parent="1">
          <mxGeometry width="80" relative="1" as="geometry">
            <mxPoint x="270" y="140" as="sourcePoint" />
            <mxPoint x="410" y="140" as="targetPoint" />
            <Array as="points">
              <mxPoint x="260" y="140" />
            </Array>
          </mxGeometry>
        </mxCell>
        <mxCell id="NcYGzKrfO2AgDN8FQ53x-2" value="getEvent()" style="html=1;verticalAlign=bottom;endArrow=block;edgeStyle=elbowEdgeStyle;elbow=vertical;curved=0;rounded=0;" edge="1" parent="1" target="QW6PN2CW0WBKj5Q1I79f-14">
          <mxGeometry width="80" relative="1" as="geometry">
            <mxPoint x="420" y="150" as="sourcePoint" />
            <mxPoint x="500" y="150" as="targetPoint" />
          </mxGeometry>
        </mxCell>
        <mxCell id="OFt4im7wb_RddsKpzsbT-1" value="Event()" style="html=1;verticalAlign=bottom;endArrow=block;edgeStyle=elbowEdgeStyle;elbow=vertical;curved=0;rounded=0;" edge="1" parent="1">
          <mxGeometry width="80" relative="1" as="geometry">
            <mxPoint x="560" y="170" as="sourcePoint" />
            <mxPoint x="690" y="170" as="targetPoint" />
          </mxGeometry>
        </mxCell>
        <mxCell id="fNEhSS18g99auR-ih_F9-1" value="Event" style="html=1;verticalAlign=bottom;endArrow=open;dashed=1;endSize=8;edgeStyle=elbowEdgeStyle;elbow=vertical;curved=0;rounded=0;" edge="1" parent="1">
          <mxGeometry relative="1" as="geometry">
            <mxPoint x="690" y="210" as="sourcePoint" />
            <mxPoint x="560" y="210" as="targetPoint" />
          </mxGeometry>
        </mxCell>
        <mxCell id="54kWFatct33kXLKdkpYe-2" value="ArrayList&amp;lt;Event&amp;gt;" style="html=1;verticalAlign=bottom;endArrow=open;dashed=1;endSize=8;edgeStyle=elbowEdgeStyle;elbow=vertical;curved=0;rounded=0;" edge="1" parent="1">
          <mxGeometry relative="1" as="geometry">
            <mxPoint x="550" y="225" as="sourcePoint" />
            <mxPoint x="420" y="225" as="targetPoint" />
          </mxGeometry>
        </mxCell>
        <mxCell id="enMk9DWVJbo2UcqCdfSC-1" value="" style="html=1;points=[];perimeter=orthogonalPerimeter;outlineConnect=0;targetShapes=umlLifeline;portConstraint=eastwest;newEdgeStyle={&quot;edgeStyle&quot;:&quot;elbowEdgeStyle&quot;,&quot;elbow&quot;:&quot;vertical&quot;,&quot;curved&quot;:0,&quot;rounded&quot;:0};" vertex="1" parent="1">
          <mxGeometry x="410" y="218" width="10" height="92" as="geometry" />
        </mxCell>
        <mxCell id="54kWFatct33kXLKdkpYe-1" value="setContent()" style="html=1;align=left;spacingLeft=2;endArrow=block;rounded=0;edgeStyle=orthogonalEdgeStyle;curved=0;rounded=0;" edge="1" parent="1">
          <mxGeometry relative="1" as="geometry">
            <mxPoint x="420" y="235" as="sourcePoint" />
            <Array as="points">
              <mxPoint x="450" y="265" />
            </Array>
            <mxPoint x="425" y="265" as="targetPoint" />
          </mxGeometry>
        </mxCell>
        <mxCell id="K6LuzZzcL8EKveH3kgP3-1" value="" style="html=1;points=[];perimeter=orthogonalPerimeter;outlineConnect=0;targetShapes=umlLifeline;portConstraint=eastwest;newEdgeStyle={&quot;edgeStyle&quot;:&quot;elbowEdgeStyle&quot;,&quot;elbow&quot;:&quot;vertical&quot;,&quot;curved&quot;:0,&quot;rounded&quot;:0};" vertex="1" parent="1">
          <mxGeometry x="415" y="256" width="10" height="40" as="geometry" />
        </mxCell>
        <mxCell id="pD9J0dZ4VmjLgeRvpIna-1" value="Отображение информации о мероприятии" style="html=1;verticalAlign=bottom;endArrow=open;dashed=1;endSize=8;edgeStyle=elbowEdgeStyle;elbow=vertical;curved=0;rounded=0;" edge="1" parent="1">
          <mxGeometry relative="1" as="geometry">
            <mxPoint x="410" y="302" as="sourcePoint" />
            <mxPoint x="97" y="302" as="targetPoint" />
          </mxGeometry>
        </mxCell>
        <mxCell id="jkCCO_yDyvuDiSNhlYV5-1" value="" style="html=1;points=[];perimeter=orthogonalPerimeter;outlineConnect=0;targetShapes=umlLifeline;portConstraint=eastwest;newEdgeStyle={&quot;edgeStyle&quot;:&quot;elbowEdgeStyle&quot;,&quot;elbow&quot;:&quot;vertical&quot;,&quot;curved&quot;:0,&quot;rounded&quot;:0};" vertex="1" parent="1">
          <mxGeometry x="87" y="295" width="10" height="45" as="geometry" />
        </mxCell>
        <mxCell id="5vUXlVllRLdKYAuAef-E-1" value="Регистрация на мероприятие" style="html=1;verticalAlign=bottom;endArrow=block;edgeStyle=elbowEdgeStyle;elbow=vertical;curved=0;rounded=0;" edge="1" parent="1" target="5vUXlVllRLdKYAuAef-E-2">
          <mxGeometry width="80" relative="1" as="geometry">
            <mxPoint x="107" y="339.16999999999996" as="sourcePoint" />
            <mxPoint x="257" y="339.16999999999996" as="targetPoint" />
            <Array as="points">
              <mxPoint x="97" y="339.16999999999996" />
            </Array>
          </mxGeometry>
        </mxCell>
        <mxCell id="5vUXlVllRLdKYAuAef-E-3" value="regForEvent()" style="html=1;verticalAlign=bottom;endArrow=block;edgeStyle=elbowEdgeStyle;elbow=vertical;curved=0;rounded=0;" edge="1" parent="1">
          <mxGeometry width="80" relative="1" as="geometry">
            <mxPoint x="420" y="350" as="sourcePoint" />
            <mxPoint x="550" y="350" as="targetPoint" />
          </mxGeometry>
        </mxCell>
        <mxCell id="5vUXlVllRLdKYAuAef-E-4" value="" style="html=1;points=[];perimeter=orthogonalPerimeter;outlineConnect=0;targetShapes=umlLifeline;portConstraint=eastwest;newEdgeStyle={&quot;edgeStyle&quot;:&quot;elbowEdgeStyle&quot;,&quot;elbow&quot;:&quot;vertical&quot;,&quot;curved&quot;:0,&quot;rounded&quot;:0};" vertex="1" parent="1">
          <mxGeometry x="550" y="343" width="10" height="37" as="geometry" />
        </mxCell>
        <mxCell id="5vUXlVllRLdKYAuAef-E-5" value="return()" style="html=1;verticalAlign=bottom;endArrow=open;dashed=1;endSize=8;edgeStyle=elbowEdgeStyle;elbow=vertical;curved=0;rounded=0;" edge="1" parent="1">
          <mxGeometry relative="1" as="geometry">
            <mxPoint x="550" y="380" as="sourcePoint" />
            <mxPoint x="420" y="380" as="targetPoint" />
          </mxGeometry>
        </mxCell>
        <mxCell id="5vUXlVllRLdKYAuAef-E-6" value="Отображение информации о статусе регистрации" style="html=1;verticalAlign=bottom;endArrow=open;dashed=1;endSize=8;edgeStyle=elbowEdgeStyle;elbow=vertical;curved=0;rounded=0;" edge="1" parent="1" target="5vUXlVllRLdKYAuAef-E-7">
          <mxGeometry relative="1" as="geometry">
            <mxPoint x="410" y="390" as="sourcePoint" />
            <mxPoint x="85" y="390" as="targetPoint" />
          </mxGeometry>
        </mxCell>
        <mxCell id="5vUXlVllRLdKYAuAef-E-7" value="" style="html=1;points=[];perimeter=orthogonalPerimeter;outlineConnect=0;targetShapes=umlLifeline;portConstraint=eastwest;newEdgeStyle={&quot;edgeStyle&quot;:&quot;elbowEdgeStyle&quot;,&quot;elbow&quot;:&quot;vertical&quot;,&quot;curved&quot;:0,&quot;rounded&quot;:0};" vertex="1" parent="1">
          <mxGeometry x="87" y="380" width="10" height="20" as="geometry" />
        </mxCell>
      </root>
    </mxGraphModel>
  </diagram>
  <diagram id="v6z_jMGeWlXktp2aCTPx" name="Страница 4">
    <mxGraphModel dx="1434" dy="783" grid="1" gridSize="10" guides="1" tooltips="1" connect="1" arrows="1" fold="1" page="1" pageScale="1" pageWidth="827" pageHeight="1169" math="0" shadow="0">
      <root>
        <mxCell id="0" />
        <mxCell id="1" parent="0" />
        <mxCell id="B-NQiHE6YNW6qW6BM8sB-52" value="checkUser()" style="html=1;verticalAlign=bottom;endArrow=block;edgeStyle=elbowEdgeStyle;elbow=vertical;curved=0;rounded=0;" edge="1" parent="1">
          <mxGeometry width="80" relative="1" as="geometry">
            <mxPoint x="242" y="250" as="sourcePoint" />
            <mxPoint x="535" y="250" as="targetPoint" />
          </mxGeometry>
        </mxCell>
        <mxCell id="B-NQiHE6YNW6qW6BM8sB-37" value="Выбор мероприятия" style="html=1;verticalAlign=bottom;endArrow=block;edgeStyle=elbowEdgeStyle;elbow=vertical;curved=0;rounded=0;" edge="1" parent="1" target="B-NQiHE6YNW6qW6BM8sB-39">
          <mxGeometry width="80" relative="1" as="geometry">
            <mxPoint x="82" y="140" as="sourcePoint" />
            <mxPoint x="164" y="140" as="targetPoint" />
            <Array as="points">
              <mxPoint x="72" y="140" />
            </Array>
          </mxGeometry>
        </mxCell>
        <mxCell id="B-NQiHE6YNW6qW6BM8sB-38" value="ScannerActivity&amp;nbsp;" style="shape=umlLifeline;perimeter=lifelinePerimeter;whiteSpace=wrap;html=1;container=1;dropTarget=0;collapsible=0;recursiveResize=0;outlineConnect=0;portConstraint=eastwest;newEdgeStyle={&quot;edgeStyle&quot;:&quot;elbowEdgeStyle&quot;,&quot;elbow&quot;:&quot;vertical&quot;,&quot;curved&quot;:0,&quot;rounded&quot;:0};" vertex="1" parent="1">
          <mxGeometry x="187" y="20" width="100" height="420" as="geometry" />
        </mxCell>
        <mxCell id="B-NQiHE6YNW6qW6BM8sB-39" value="" style="html=1;points=[];perimeter=orthogonalPerimeter;outlineConnect=0;targetShapes=umlLifeline;portConstraint=eastwest;newEdgeStyle={&quot;edgeStyle&quot;:&quot;elbowEdgeStyle&quot;,&quot;elbow&quot;:&quot;vertical&quot;,&quot;curved&quot;:0,&quot;rounded&quot;:0};" vertex="1" parent="B-NQiHE6YNW6qW6BM8sB-38">
          <mxGeometry x="45" y="100" width="10" height="90" as="geometry" />
        </mxCell>
        <mxCell id="B-NQiHE6YNW6qW6BM8sB-40" value="startScanning()" style="html=1;align=left;spacingLeft=2;endArrow=block;rounded=0;edgeStyle=orthogonalEdgeStyle;curved=0;rounded=0;" edge="1" parent="B-NQiHE6YNW6qW6BM8sB-38" source="B-NQiHE6YNW6qW6BM8sB-39">
          <mxGeometry relative="1" as="geometry">
            <mxPoint x="60" y="114.5" as="sourcePoint" />
            <Array as="points">
              <mxPoint x="75" y="125" />
              <mxPoint x="75" y="145" />
            </Array>
            <mxPoint x="65" y="144.5" as="targetPoint" />
          </mxGeometry>
        </mxCell>
        <mxCell id="B-NQiHE6YNW6qW6BM8sB-41" value="" style="html=1;points=[];perimeter=orthogonalPerimeter;outlineConnect=0;targetShapes=umlLifeline;portConstraint=eastwest;newEdgeStyle={&quot;edgeStyle&quot;:&quot;elbowEdgeStyle&quot;,&quot;elbow&quot;:&quot;vertical&quot;,&quot;curved&quot;:0,&quot;rounded&quot;:0};" vertex="1" parent="B-NQiHE6YNW6qW6BM8sB-38">
          <mxGeometry x="55" y="135.5" width="10" height="40" as="geometry" />
        </mxCell>
        <mxCell id="7y3e8vpAeBpQUKSCTDkk-6" value="" style="html=1;points=[];perimeter=orthogonalPerimeter;outlineConnect=0;targetShapes=umlLifeline;portConstraint=eastwest;newEdgeStyle={&quot;edgeStyle&quot;:&quot;elbowEdgeStyle&quot;,&quot;elbow&quot;:&quot;vertical&quot;,&quot;curved&quot;:0,&quot;rounded&quot;:0};" vertex="1" parent="B-NQiHE6YNW6qW6BM8sB-38">
          <mxGeometry x="45" y="280" width="10" height="31.5" as="geometry" />
        </mxCell>
        <mxCell id="B-NQiHE6YNW6qW6BM8sB-42" value="" style="shape=umlLifeline;perimeter=lifelinePerimeter;whiteSpace=wrap;html=1;container=1;dropTarget=0;collapsible=0;recursiveResize=0;outlineConnect=0;portConstraint=eastwest;newEdgeStyle={&quot;edgeStyle&quot;:&quot;elbowEdgeStyle&quot;,&quot;elbow&quot;:&quot;vertical&quot;,&quot;curved&quot;:0,&quot;rounded&quot;:0};participant=umlActor;" vertex="1" parent="1">
          <mxGeometry x="64" y="20" width="20" height="420" as="geometry" />
        </mxCell>
        <mxCell id="B-NQiHE6YNW6qW6BM8sB-43" value="" style="html=1;points=[];perimeter=orthogonalPerimeter;outlineConnect=0;targetShapes=umlLifeline;portConstraint=eastwest;newEdgeStyle={&quot;edgeStyle&quot;:&quot;elbowEdgeStyle&quot;,&quot;elbow&quot;:&quot;vertical&quot;,&quot;curved&quot;:0,&quot;rounded&quot;:0};" vertex="1" parent="B-NQiHE6YNW6qW6BM8sB-42">
          <mxGeometry x="5" y="86" width="10" height="64" as="geometry" />
        </mxCell>
        <mxCell id="B-NQiHE6YNW6qW6BM8sB-44" value="" style="html=1;points=[];perimeter=orthogonalPerimeter;outlineConnect=0;targetShapes=umlLifeline;portConstraint=eastwest;newEdgeStyle={&quot;edgeStyle&quot;:&quot;elbowEdgeStyle&quot;,&quot;elbow&quot;:&quot;vertical&quot;,&quot;curved&quot;:0,&quot;rounded&quot;:0};" vertex="1" parent="B-NQiHE6YNW6qW6BM8sB-42">
          <mxGeometry x="5" y="173" width="10" height="50" as="geometry" />
        </mxCell>
        <mxCell id="B-NQiHE6YNW6qW6BM8sB-45" value="ResultScannerActivity&amp;nbsp;" style="shape=umlLifeline;perimeter=lifelinePerimeter;whiteSpace=wrap;html=1;container=1;dropTarget=0;collapsible=0;recursiveResize=0;outlineConnect=0;portConstraint=eastwest;newEdgeStyle={&quot;edgeStyle&quot;:&quot;elbowEdgeStyle&quot;,&quot;elbow&quot;:&quot;vertical&quot;,&quot;curved&quot;:0,&quot;rounded&quot;:0};" vertex="1" parent="1">
          <mxGeometry x="342" y="20" width="120" height="420" as="geometry" />
        </mxCell>
        <mxCell id="UmhXFL8jG8191LqW-_M2-3" value="setPres()" style="html=1;align=left;spacingLeft=2;endArrow=block;rounded=0;edgeStyle=orthogonalEdgeStyle;curved=0;rounded=0;" edge="1" target="UmhXFL8jG8191LqW-_M2-2" parent="B-NQiHE6YNW6qW6BM8sB-45">
          <mxGeometry relative="1" as="geometry">
            <mxPoint x="65" y="312" as="sourcePoint" />
            <Array as="points">
              <mxPoint x="95" y="342" />
            </Array>
          </mxGeometry>
        </mxCell>
        <mxCell id="UmhXFL8jG8191LqW-_M2-2" value="" style="html=1;points=[];perimeter=orthogonalPerimeter;outlineConnect=0;targetShapes=umlLifeline;portConstraint=eastwest;newEdgeStyle={&quot;edgeStyle&quot;:&quot;elbowEdgeStyle&quot;,&quot;elbow&quot;:&quot;vertical&quot;,&quot;curved&quot;:0,&quot;rounded&quot;:0};" vertex="1" parent="B-NQiHE6YNW6qW6BM8sB-45">
          <mxGeometry x="60" y="332" width="10" height="40" as="geometry" />
        </mxCell>
        <mxCell id="B-NQiHE6YNW6qW6BM8sB-46" value="ServerHelper" style="shape=umlLifeline;perimeter=lifelinePerimeter;whiteSpace=wrap;html=1;container=1;dropTarget=0;collapsible=0;recursiveResize=0;outlineConnect=0;portConstraint=eastwest;newEdgeStyle={&quot;edgeStyle&quot;:&quot;elbowEdgeStyle&quot;,&quot;elbow&quot;:&quot;vertical&quot;,&quot;curved&quot;:0,&quot;rounded&quot;:0};" vertex="1" parent="1">
          <mxGeometry x="482" y="20" width="110" height="420" as="geometry" />
        </mxCell>
        <mxCell id="7y3e8vpAeBpQUKSCTDkk-4" value="" style="html=1;points=[];perimeter=orthogonalPerimeter;outlineConnect=0;targetShapes=umlLifeline;portConstraint=eastwest;newEdgeStyle={&quot;edgeStyle&quot;:&quot;elbowEdgeStyle&quot;,&quot;elbow&quot;:&quot;vertical&quot;,&quot;curved&quot;:0,&quot;rounded&quot;:0};" vertex="1" parent="B-NQiHE6YNW6qW6BM8sB-46">
          <mxGeometry x="50" y="223" width="10" height="67" as="geometry" />
        </mxCell>
        <mxCell id="B-NQiHE6YNW6qW6BM8sB-47" value="MyEvent" style="shape=umlLifeline;perimeter=lifelinePerimeter;whiteSpace=wrap;html=1;container=1;dropTarget=0;collapsible=0;recursiveResize=0;outlineConnect=0;portConstraint=eastwest;newEdgeStyle={&quot;edgeStyle&quot;:&quot;elbowEdgeStyle&quot;,&quot;elbow&quot;:&quot;vertical&quot;,&quot;curved&quot;:0,&quot;rounded&quot;:0};" vertex="1" parent="1">
          <mxGeometry x="622" y="20" width="110" height="420" as="geometry" />
        </mxCell>
        <mxCell id="7y3e8vpAeBpQUKSCTDkk-5" value="" style="html=1;points=[];perimeter=orthogonalPerimeter;outlineConnect=0;targetShapes=umlLifeline;portConstraint=eastwest;newEdgeStyle={&quot;edgeStyle&quot;:&quot;elbowEdgeStyle&quot;,&quot;elbow&quot;:&quot;vertical&quot;,&quot;curved&quot;:0,&quot;rounded&quot;:0};" vertex="1" parent="B-NQiHE6YNW6qW6BM8sB-47">
          <mxGeometry x="50" y="230" width="10" height="67" as="geometry" />
        </mxCell>
        <mxCell id="B-NQiHE6YNW6qW6BM8sB-48" value="Отображение сканера" style="html=1;verticalAlign=bottom;endArrow=open;dashed=1;endSize=8;edgeStyle=elbowEdgeStyle;elbow=vertical;curved=0;rounded=0;" edge="1" parent="1" source="B-NQiHE6YNW6qW6BM8sB-39" target="B-NQiHE6YNW6qW6BM8sB-44">
          <mxGeometry relative="1" as="geometry">
            <mxPoint x="212" y="199.58" as="sourcePoint" />
            <mxPoint x="132" y="199.58" as="targetPoint" />
          </mxGeometry>
        </mxCell>
        <mxCell id="B-NQiHE6YNW6qW6BM8sB-49" value="Сканирование QR-кода" style="html=1;verticalAlign=bottom;endArrow=block;edgeStyle=elbowEdgeStyle;elbow=vertical;curved=0;rounded=0;" edge="1" parent="1" source="B-NQiHE6YNW6qW6BM8sB-51">
          <mxGeometry x="1" y="84" width="80" relative="1" as="geometry">
            <mxPoint x="89" y="238" as="sourcePoint" />
            <mxPoint x="239" y="238" as="targetPoint" />
            <Array as="points" />
            <mxPoint x="-84" y="2" as="offset" />
          </mxGeometry>
        </mxCell>
        <mxCell id="B-NQiHE6YNW6qW6BM8sB-50" value="" style="html=1;verticalAlign=bottom;endArrow=block;edgeStyle=elbowEdgeStyle;elbow=vertical;curved=0;rounded=0;" edge="1" parent="1" target="B-NQiHE6YNW6qW6BM8sB-51">
          <mxGeometry width="80" relative="1" as="geometry">
            <mxPoint x="89" y="238" as="sourcePoint" />
            <mxPoint x="239" y="238" as="targetPoint" />
            <Array as="points">
              <mxPoint x="79" y="238" />
            </Array>
          </mxGeometry>
        </mxCell>
        <mxCell id="B-NQiHE6YNW6qW6BM8sB-51" value="" style="html=1;points=[];perimeter=orthogonalPerimeter;outlineConnect=0;targetShapes=umlLifeline;portConstraint=eastwest;newEdgeStyle={&quot;edgeStyle&quot;:&quot;elbowEdgeStyle&quot;,&quot;elbow&quot;:&quot;vertical&quot;,&quot;curved&quot;:0,&quot;rounded&quot;:0};" vertex="1" parent="1">
          <mxGeometry x="232" y="228.5" width="10" height="31.5" as="geometry" />
        </mxCell>
        <mxCell id="B-NQiHE6YNW6qW6BM8sB-53" value="User()" style="html=1;verticalAlign=bottom;endArrow=block;edgeStyle=elbowEdgeStyle;elbow=vertical;curved=0;rounded=0;" edge="1" parent="1">
          <mxGeometry width="80" relative="1" as="geometry">
            <mxPoint x="542" y="260" as="sourcePoint" />
            <mxPoint x="672" y="260" as="targetPoint" />
          </mxGeometry>
        </mxCell>
        <mxCell id="B-NQiHE6YNW6qW6BM8sB-54" value="User" style="html=1;verticalAlign=bottom;endArrow=open;dashed=1;endSize=8;edgeStyle=elbowEdgeStyle;elbow=vertical;curved=0;rounded=0;" edge="1" parent="1">
          <mxGeometry relative="1" as="geometry">
            <mxPoint x="672" y="294" as="sourcePoint" />
            <mxPoint x="542" y="294" as="targetPoint" />
          </mxGeometry>
        </mxCell>
        <mxCell id="7y3e8vpAeBpQUKSCTDkk-2" value="Ответственный за мероприятие" style="text;html=1;strokeColor=none;fillColor=none;align=center;verticalAlign=middle;whiteSpace=wrap;rounded=0;" vertex="1" parent="1">
          <mxGeometry x="24" y="70" width="120" height="30" as="geometry" />
        </mxCell>
        <mxCell id="7y3e8vpAeBpQUKSCTDkk-7" value="User" style="html=1;verticalAlign=bottom;endArrow=open;dashed=1;endSize=8;edgeStyle=elbowEdgeStyle;elbow=vertical;curved=0;rounded=0;" edge="1" parent="1" target="7y3e8vpAeBpQUKSCTDkk-6">
          <mxGeometry relative="1" as="geometry">
            <mxPoint x="533" y="308" as="sourcePoint" />
            <mxPoint x="403" y="308" as="targetPoint" />
          </mxGeometry>
        </mxCell>
        <mxCell id="7y3e8vpAeBpQUKSCTDkk-8" value="startActivity()" style="html=1;verticalAlign=bottom;endArrow=block;edgeStyle=elbowEdgeStyle;elbow=vertical;curved=0;rounded=0;" edge="1" parent="1" source="7y3e8vpAeBpQUKSCTDkk-6" target="UmhXFL8jG8191LqW-_M2-1">
          <mxGeometry width="80" relative="1" as="geometry">
            <mxPoint x="345" y="330" as="sourcePoint" />
            <mxPoint x="375" y="330" as="targetPoint" />
            <Array as="points">
              <mxPoint x="255" y="330" />
            </Array>
          </mxGeometry>
        </mxCell>
        <mxCell id="UmhXFL8jG8191LqW-_M2-1" value="" style="html=1;points=[];perimeter=orthogonalPerimeter;outlineConnect=0;targetShapes=umlLifeline;portConstraint=eastwest;newEdgeStyle={&quot;edgeStyle&quot;:&quot;elbowEdgeStyle&quot;,&quot;elbow&quot;:&quot;vertical&quot;,&quot;curved&quot;:0,&quot;rounded&quot;:0};" vertex="1" parent="1">
          <mxGeometry x="397" y="322" width="10" height="88" as="geometry" />
        </mxCell>
        <mxCell id="UmhXFL8jG8191LqW-_M2-4" value="Отображение информации о &lt;br&gt;подтверждении присутствия" style="html=1;verticalAlign=bottom;endArrow=open;dashed=1;endSize=8;edgeStyle=elbowEdgeStyle;elbow=vertical;curved=0;rounded=0;" edge="1" parent="1" target="AFRfWOL598RiUTAQzqKf-1">
          <mxGeometry relative="1" as="geometry">
            <mxPoint x="397" y="400" as="sourcePoint" />
            <mxPoint x="267" y="400" as="targetPoint" />
          </mxGeometry>
        </mxCell>
        <mxCell id="AFRfWOL598RiUTAQzqKf-1" value="" style="html=1;points=[];perimeter=orthogonalPerimeter;outlineConnect=0;targetShapes=umlLifeline;portConstraint=eastwest;newEdgeStyle={&quot;edgeStyle&quot;:&quot;elbowEdgeStyle&quot;,&quot;elbow&quot;:&quot;vertical&quot;,&quot;curved&quot;:0,&quot;rounded&quot;:0};" vertex="1" parent="1">
          <mxGeometry x="69" y="392" width="10" height="20" as="geometry" />
        </mxCell>
      </root>
    </mxGraphModel>
  </diagram>
</mxfile>
